<?xml version="1.0" encoding="utf-8"?>
<!-- Generator: Adobe Illustrator 16.0.3, SVG Export Plug-In . SVG Version: 6.00 Build 0)  -->
<!DOCTYPE svg PUBLIC "-//W3C//DTD SVG 1.1//EN" "http://www.w3.org/Graphics/SVG/1.1/DTD/svg11.dtd">
<svg version="1.1" id="Capa_1" xmlns="http://www.w3.org/2000/svg" xmlns:xlink="http://www.w3.org/1999/xlink" x="0px" y="0px"
	 width="24px" height="24px" viewBox="0 0 24 24" enable-background="new 0 0 24 24" xml:space="preserve">
<g>
	<g>
		<defs>
			<rect id="SVGID_1_" x="0" width="24" height="24"/>
		</defs>
		<clipPath id="SVGID_2_">
			<use xlink:href="#SVGID_1_"  overflow="visible"/>
		</clipPath>
		<g clip-path="url(#SVGID_2_)">
			<defs>
				<rect id="SVGID_3_" x="0" width="24" height="24"/>
			</defs>
			<clipPath id="SVGID_4_">
				<use xlink:href="#SVGID_3_"  overflow="visible"/>
			</clipPath>
			<path clip-path="url(#SVGID_4_)" fill-rule="evenodd" clip-rule="evenodd" fill="#F6DC5D" d="M19.78,10.673
				c-1.328,0-2.655,0-3.983,0c-0.114,0-0.125-0.003-0.164-0.114c-0.068-0.192-0.162-0.372-0.258-0.55
				c-0.074-0.138-0.163-0.271-0.257-0.399c-0.126-0.174-0.27-0.331-0.423-0.48c-0.265-0.257-0.561-0.47-0.895-0.631
				c-0.189-0.091-0.386-0.166-0.578-0.251c-0.147-0.065-0.299-0.118-0.454-0.157c-0.153-0.039-0.308-0.072-0.468-0.077
				C12.21,8.012,12.12,7.999,12.029,7.99c-0.021-0.002-0.042-0.005-0.063-0.004c-0.246,0.013-0.492,0.028-0.734,0.083
				c-0.135,0.03-0.264,0.074-0.396,0.113c-0.229,0.068-0.445,0.168-0.659,0.273C10.01,8.537,9.849,8.631,9.691,8.734
				c-0.29,0.19-0.542,0.422-0.774,0.676c-0.171,0.188-0.321,0.396-0.445,0.62c-0.112,0.202-0.212,0.41-0.289,0.628
				c-0.038,0.109-0.092,0.213-0.112,0.329c-0.036,0.202-0.077,0.403-0.073,0.611c0.007,0.328,0,0.657,0.003,0.986
				c0.002,0.175,0.039,0.346,0.084,0.514c0.051,0.19,0.126,0.374,0.205,0.555c0.064,0.148,0.142,0.293,0.229,0.432
				c0.109,0.175,0.226,0.343,0.356,0.502c0.015,0.018,0.029,0.036,0.045,0.053c0.119,0.124,0.235,0.251,0.365,0.364
				c0.104,0.09,0.216,0.17,0.326,0.253c0.119,0.09,0.246,0.166,0.375,0.238c0.179,0.099,0.361,0.192,0.558,0.255
				c0.044,0.015,0.083,0.042,0.127,0.058c0.142,0.049,0.282,0.103,0.427,0.139c0.156,0.039,0.313,0.074,0.475,0.086
				c0.164,0.013,0.328,0.016,0.492,0.012c0.266-0.007,0.528-0.037,0.785-0.114c0.151-0.046,0.3-0.097,0.44-0.17
				c0.041-0.021,0.088-0.029,0.132-0.046c0.203-0.074,0.395-0.173,0.581-0.28c0.134-0.077,0.264-0.159,0.386-0.252
				c0.101-0.077,0.195-0.164,0.292-0.247c0.127-0.11,0.233-0.237,0.338-0.366c0.098-0.12,0.189-0.246,0.27-0.381
				c0.094-0.156,0.176-0.317,0.255-0.481c0.038-0.079,0.069-0.161,0.101-0.243c0.022-0.059,0.058-0.085,0.124-0.081
				c0.18,0.01,0.359-0.011,0.539-0.011c2.435,0,4.87,0,7.306,0c0.075-0.001,0.15,0.005,0.226,0.011
				c0.039,0.003,0.051,0.021,0.048,0.055c-0.001,0.019,0.003,0.038-0.002,0.055c-0.041,0.129-0.052,0.265-0.084,0.396
				c-0.032,0.128-0.058,0.258-0.087,0.387c-0.004,0.015-0.004,0.031-0.008,0.046c-0.041,0.147-0.063,0.3-0.106,0.446
				c-0.031,0.104-0.051,0.211-0.083,0.315c-0.028,0.094-0.062,0.188-0.074,0.286c-0.003,0.022-0.019,0.043-0.023,0.065
				c-0.028,0.118-0.075,0.23-0.104,0.35c-0.02,0.087-0.062,0.17-0.088,0.255c-0.019,0.058-0.041,0.112-0.06,0.169
				c-0.063,0.192-0.141,0.379-0.222,0.564c-0.063,0.143-0.122,0.287-0.189,0.427c-0.08,0.165-0.156,0.332-0.253,0.49
				c-0.066,0.108-0.123,0.223-0.186,0.334c-0.063,0.113-0.132,0.224-0.201,0.333c-0.094,0.149-0.193,0.296-0.294,0.44
				c-0.1,0.144-0.204,0.282-0.304,0.424c-0.076,0.108-0.168,0.205-0.25,0.31c-0.152,0.194-0.322,0.375-0.485,0.56
				c-0.07,0.081-0.152,0.15-0.225,0.229c-0.113,0.126-0.235,0.243-0.36,0.357c-0.132,0.121-0.264,0.243-0.399,0.36
				c-0.198,0.172-0.407,0.331-0.612,0.495c-0.152,0.122-0.311,0.235-0.472,0.346c-0.167,0.114-0.334,0.229-0.508,0.334
				c-0.094,0.056-0.183,0.121-0.279,0.169c-0.212,0.104-0.409,0.234-0.621,0.338c-0.256,0.126-0.508,0.258-0.773,0.361
				c-0.104,0.039-0.205,0.088-0.306,0.136c-0.052,0.023-0.108,0.035-0.156,0.067c-0.021,0.014-0.046,0.01-0.069,0.01
				c-0.032,0-0.048-0.017-0.049-0.048c-0.001-0.016-0.001-0.031-0.001-0.047c0-0.866,0-1.731,0-2.598
				c0-0.026-0.001-0.053,0.003-0.078c0.006-0.043,0.024-0.077,0.066-0.099c0.144-0.076,0.288-0.153,0.43-0.233
				c0.095-0.054,0.187-0.112,0.281-0.166c0.112-0.064,0.222-0.134,0.328-0.208c0.234-0.164,0.465-0.332,0.688-0.511
				c0.179-0.144,0.352-0.294,0.519-0.449c0.16-0.149,0.317-0.301,0.469-0.459c0.149-0.155,0.285-0.324,0.424-0.489
				c0.108-0.13,0.209-0.266,0.311-0.4c0.087-0.116,0.174-0.232,0.255-0.354c0.075-0.112,0.146-0.228,0.217-0.342
				c0.106-0.172,0.212-0.344,0.3-0.526c0.026-0.054,0.06-0.104,0.087-0.156c0.031-0.062,0.013-0.094-0.057-0.099
				c-0.031-0.002-0.063-0.001-0.094-0.001c-0.929,0-1.857,0.001-2.785-0.001c-0.069,0-0.114,0.021-0.156,0.078
				c-0.063,0.086-0.138,0.162-0.208,0.243c-0.131,0.148-0.258,0.301-0.404,0.435c-0.253,0.232-0.513,0.456-0.795,0.654
				c-0.172,0.121-0.349,0.235-0.53,0.342c-0.098,0.059-0.202,0.106-0.304,0.158c-0.108,0.055-0.216,0.114-0.328,0.159
				c-0.162,0.063-0.319,0.137-0.485,0.189c-0.104,0.033-0.208,0.064-0.312,0.1c-0.112,0.038-0.231,0.059-0.348,0.088
				c-0.042,0.011-0.083,0.026-0.129,0.028c-0.098,0.004-0.122,0.031-0.122,0.13c0,0.753,0,1.507,0,2.261c0,0.954,0,1.909,0,2.863
				c0,0.023,0,0.048-0.004,0.07c-0.013,0.075-0.025,0.087-0.101,0.089c-0.049,0.001-0.092,0.017-0.137,0.03
				c-0.094,0.026-0.191,0.022-0.287,0.027c-0.192,0.01-0.384,0.025-0.578,0.021c-0.174-0.005-0.349,0.003-0.524-0.002
				c-0.221-0.007-0.442-0.016-0.663-0.032c-0.108-0.008-0.213-0.043-0.323-0.047c-0.036-0.001-0.056-0.026-0.058-0.063
				c-0.001-0.021-0.001-0.041-0.001-0.063c0-1.692,0-3.385,0-5.078c0-0.023-0.002-0.047,0-0.07c0.009-0.088-0.034-0.121-0.116-0.135
				c-0.192-0.033-0.379-0.086-0.566-0.142c-0.14-0.042-0.277-0.089-0.413-0.141c-0.23-0.087-0.451-0.195-0.667-0.313
				c-0.121-0.065-0.245-0.125-0.359-0.2c-0.117-0.077-0.231-0.158-0.346-0.239c-0.127-0.09-0.247-0.19-0.369-0.287
				c-0.057-0.046-0.11-0.096-0.166-0.144c-0.14-0.121-0.273-0.249-0.399-0.385c-0.163-0.176-0.328-0.35-0.47-0.543
				c-0.043-0.059-0.095-0.085-0.171-0.084c-0.973,0.002-1.945,0.003-2.918,0.001c-0.128,0-0.147,0.032-0.087,0.14
				c0.072,0.129,0.144,0.258,0.218,0.386c0.106,0.186,0.214,0.368,0.333,0.545c0.187,0.278,0.383,0.55,0.596,0.81
				c0.122,0.148,0.251,0.291,0.381,0.434c0.128,0.141,0.261,0.277,0.398,0.408c0.124,0.119,0.253,0.232,0.384,0.344
				c0.123,0.104,0.246,0.209,0.374,0.307c0.134,0.102,0.268,0.204,0.405,0.303c0.152,0.109,0.311,0.208,0.466,0.313
				c0.103,0.069,0.215,0.125,0.325,0.186c0.136,0.074,0.273,0.148,0.411,0.222c0.04,0.021,0.055,0.051,0.054,0.095
				c-0.001,0.109,0,0.219,0,0.328c0,0.777,0,1.555,0,2.332c0,0.013,0,0.026,0,0.039c-0.001,0.073-0.038,0.099-0.104,0.064
				c-0.13-0.067-0.271-0.106-0.403-0.167c-0.221-0.101-0.444-0.197-0.662-0.309c-0.147-0.075-0.293-0.153-0.438-0.232
				c-0.18-0.099-0.359-0.198-0.535-0.304c-0.263-0.158-0.516-0.331-0.766-0.508c-0.162-0.113-0.316-0.237-0.469-0.361
				c-0.153-0.125-0.31-0.245-0.455-0.38c-0.156-0.146-0.32-0.284-0.469-0.436c-0.161-0.162-0.325-0.322-0.477-0.495
				c-0.087-0.101-0.178-0.197-0.264-0.299c-0.099-0.117-0.201-0.231-0.296-0.352c-0.197-0.245-0.38-0.501-0.561-0.759
				c-0.087-0.123-0.16-0.255-0.246-0.379c-0.092-0.132-0.166-0.274-0.25-0.412c-0.087-0.144-0.169-0.291-0.247-0.439
				c-0.077-0.147-0.15-0.296-0.218-0.447c-0.104-0.231-0.206-0.463-0.302-0.698c-0.104-0.254-0.191-0.516-0.266-0.78
				c-0.049-0.177-0.096-0.355-0.137-0.534c-0.024-0.104-0.05-0.207-0.073-0.311c-0.038-0.167-0.063-0.337-0.095-0.505
				c-0.034-0.179-0.051-0.359-0.08-0.539c-0.011-0.067-0.014-0.135-0.015-0.202c0-0.03,0.01-0.048,0.043-0.054
				c0.031-0.005,0.062-0.01,0.093-0.01c0.141,0,0.282-0.004,0.422,0.002c0.109,0.005,0.218,0.012,0.328,0.007
				c0.06-0.003,0.119-0.009,0.179-0.008c0.933,0.018,1.867,0.013,2.8,0.008c0.388-0.002,0.776-0.007,1.165-0.009
				c0.073,0,0.146,0.008,0.218,0.011c0.078,0.003,0.103-0.029,0.088-0.107c-0.025-0.133-0.035-0.267-0.049-0.401
				c-0.045-0.455-0.029-0.911-0.022-1.367c0.003-0.235,0.014-0.473,0.071-0.704c0-0.002,0.001-0.005,0.001-0.008
				c0.018-0.104,0.006-0.118-0.098-0.118H0.185c-0.123,0-0.122,0-0.121-0.119c0-0.086,0.02-0.17,0.029-0.255
				c0.021-0.186,0.05-0.371,0.086-0.554C0.21,9.591,0.233,9.435,0.273,9.281C0.299,9.178,0.322,9.074,0.347,8.97
				c0.03-0.124,0.06-0.247,0.097-0.369C0.475,8.5,0.502,8.397,0.534,8.295c0.033-0.104,0.062-0.208,0.098-0.311
				c0.041-0.117,0.086-0.232,0.132-0.348c0.061-0.152,0.125-0.302,0.192-0.451c0.101-0.222,0.21-0.44,0.325-0.655
				c0.094-0.176,0.193-0.35,0.291-0.523c0.042-0.075,0.096-0.141,0.137-0.217c0.043-0.08,0.099-0.152,0.146-0.229
				c0.099-0.162,0.218-0.31,0.324-0.467C2.261,4.971,2.35,4.852,2.442,4.737c0.121-0.15,0.235-0.305,0.367-0.446
				c0.083-0.089,0.157-0.188,0.239-0.278c0.1-0.11,0.202-0.218,0.305-0.325c0.085-0.088,0.173-0.173,0.26-0.26
				c0.147-0.147,0.308-0.28,0.462-0.42c0.162-0.147,0.333-0.284,0.502-0.421c0.184-0.149,0.375-0.288,0.569-0.423
				C5.39,1.995,5.64,1.836,5.893,1.682C6.012,1.61,6.135,1.543,6.259,1.478c0.112-0.06,0.225-0.119,0.335-0.182
				c0.061-0.034,0.126-0.061,0.19-0.088c0.048-0.02,0.09-0.05,0.138-0.072c0.163-0.075,0.327-0.145,0.49-0.216
				c0.114-0.05,0.227-0.101,0.344-0.145c0.007-0.003,0.014-0.008,0.021-0.01c0.096-0.036,0.114-0.024,0.114,0.078
				c0,0.861,0,1.721,0.001,2.582c0,0.008-0.001,0.016,0,0.023C7.903,3.542,7.871,3.594,7.778,3.64
				C7.621,3.718,7.464,3.8,7.316,3.899C7.188,3.985,7.047,4.055,6.917,4.14c-0.152,0.1-0.3,0.205-0.447,0.313
				C6.343,4.546,6.218,4.644,6.095,4.744C5.976,4.84,5.858,4.938,5.743,5.04c-0.114,0.1-0.228,0.199-0.334,0.306
				C5.269,5.485,5.133,5.628,5,5.776C4.919,5.867,4.838,5.958,4.759,6.051C4.658,6.17,4.56,6.292,4.465,6.415
				C4.269,6.671,4.091,6.939,3.917,7.21C3.845,7.321,3.782,7.438,3.719,7.555C3.667,7.65,3.618,7.748,3.562,7.841
				C3.544,7.871,3.532,7.902,3.52,7.933C3.501,7.976,3.515,7.995,3.563,8c0.021,0.002,0.042,0.001,0.063,0.001
				c0.97,0,1.94-0.001,2.911,0.002c0.092,0,0.147-0.032,0.201-0.103C6.855,7.749,6.98,7.602,7.117,7.466
				c0.14-0.14,0.278-0.282,0.421-0.418c0.16-0.152,0.33-0.294,0.512-0.42C8.147,6.559,8.24,6.481,8.341,6.419
				C8.437,6.36,8.529,6.296,8.625,6.241c0.1-0.057,0.197-0.117,0.298-0.168c0.136-0.069,0.272-0.14,0.417-0.19
				c0.1-0.035,0.198-0.076,0.297-0.114c0.136-0.053,0.276-0.091,0.416-0.132c0.145-0.043,0.292-0.076,0.438-0.108
				c0.095-0.021,0.104-0.034,0.104-0.133c0-1.591,0-3.182,0-4.772c0-0.133,0-0.266,0.001-0.399c0.001-0.075,0.006-0.083,0.083-0.094
				c0.146-0.023,0.292-0.04,0.44-0.052c0.43-0.034,0.859-0.025,1.289-0.023c0.116,0,0.234,0.006,0.35,0.023
				c0.002,0,0.005,0.001,0.008,0.001c0.139-0.008,0.273,0.022,0.409,0.05c0.066,0.014,0.079,0.027,0.083,0.098
				c0.026,0.435,0.011,0.871,0.012,1.306c0.002,1.281,0.001,2.561,0.001,3.842V5.39c0,0.117,0.024,0.146,0.144,0.153
				c0.071,0.004,0.137,0.027,0.205,0.046c0.097,0.027,0.197,0.043,0.292,0.077C14.01,5.7,14.11,5.727,14.209,5.758
				c0.123,0.04,0.241,0.091,0.362,0.135c0.133,0.048,0.259,0.117,0.387,0.18c0.088,0.043,0.174,0.092,0.259,0.141
				c0.093,0.053,0.185,0.106,0.274,0.162c0.263,0.164,0.51,0.348,0.754,0.538c0.041,0.032,0.078,0.069,0.117,0.103
				c0.183,0.156,0.354,0.325,0.516,0.5C17,7.649,17.121,7.781,17.23,7.925c0.039,0.052,0.086,0.078,0.158,0.078
				C18.336,8,19.282,8.001,20.229,8.001c0.021,0,0.042,0.001,0.063-0.001c0.047-0.004,0.069-0.037,0.045-0.074
				c-0.072-0.108-0.118-0.231-0.185-0.343c-0.089-0.152-0.177-0.305-0.269-0.456c-0.044-0.073-0.1-0.139-0.143-0.212
				c-0.055-0.092-0.124-0.173-0.178-0.265c-0.034-0.059-0.082-0.107-0.121-0.162c-0.134-0.186-0.283-0.359-0.43-0.535
				c-0.234-0.281-0.498-0.533-0.761-0.787c-0.129-0.124-0.266-0.24-0.405-0.354c-0.159-0.129-0.324-0.252-0.484-0.381
				c-0.048-0.039-0.103-0.07-0.154-0.105c-0.104-0.069-0.204-0.143-0.311-0.208c-0.181-0.108-0.354-0.225-0.54-0.325
				c-0.106-0.058-0.213-0.116-0.319-0.173c-0.046-0.025-0.078-0.055-0.079-0.115c-0.001-0.033-0.008-0.067-0.008-0.101
				c0-0.848,0.001-1.695-0.001-2.543c0-0.117,0.021-0.145,0.144-0.091c0.162,0.07,0.325,0.137,0.486,0.208
				c0.194,0.086,0.389,0.171,0.577,0.269c0.088,0.045,0.178,0.085,0.265,0.131c0.121,0.063,0.239,0.132,0.36,0.195
				c0.119,0.062,0.235,0.131,0.348,0.204c0.159,0.103,0.325,0.196,0.478,0.309c0.138,0.102,0.285,0.191,0.421,0.295
				c0.191,0.147,0.387,0.29,0.57,0.447c0.21,0.179,0.416,0.363,0.617,0.552c0.125,0.118,0.25,0.236,0.368,0.361
				c0.131,0.14,0.264,0.28,0.39,0.426c0.13,0.152,0.263,0.302,0.388,0.458c0.088,0.109,0.171,0.223,0.256,0.334
				c0.079,0.103,0.158,0.206,0.229,0.313c0.105,0.16,0.216,0.316,0.312,0.484c0.057,0.101,0.122,0.197,0.181,0.298
				c0.14,0.245,0.272,0.494,0.396,0.748c0.063,0.128,0.121,0.258,0.179,0.389c0.048,0.112,0.093,0.226,0.138,0.339
				c0.047,0.118,0.097,0.235,0.139,0.355c0.031,0.088,0.059,0.177,0.087,0.266c0.027,0.086,0.048,0.175,0.081,0.258
				c0.033,0.085,0.055,0.173,0.079,0.26c0.036,0.127,0.076,0.254,0.104,0.382c0.021,0.1,0.05,0.196,0.073,0.294
				c0.05,0.212,0.101,0.424,0.15,0.637c0.016,0.068,0.021,0.138,0.039,0.206c0.027,0.108,0.048,0.218,0.071,0.327
				c0.002,0.008,0.005,0.015,0.007,0.022c0.02,0.114,0.004,0.133-0.111,0.133C22.44,10.674,21.109,10.674,19.78,10.673L19.78,10.673
				z"/>
		</g>
	</g>
</g>
</svg>
