<?xml version="1.0" encoding="utf-8"?>
<!-- Generator: Adobe Illustrator 16.0.3, SVG Export Plug-In . SVG Version: 6.00 Build 0)  -->
<!DOCTYPE svg PUBLIC "-//W3C//DTD SVG 1.1//EN" "http://www.w3.org/Graphics/SVG/1.1/DTD/svg11.dtd">
<svg version="1.1" id="Capa_1" xmlns="http://www.w3.org/2000/svg" xmlns:xlink="http://www.w3.org/1999/xlink" x="0px" y="0px"
	 width="177px" height="24px" viewBox="0 0 177 24" enable-background="new 0 0 177 24" xml:space="preserve">
<g>
	<g>
		<path fill="#F1DC5E" d="M24.488,10.773c-1.208,0-2.416,0-3.624,0c-0.104,0-0.114-0.003-0.15-0.105
			c-0.062-0.173-0.146-0.337-0.233-0.499c-0.067-0.125-0.149-0.246-0.234-0.363c-0.115-0.159-0.245-0.301-0.385-0.437
			c-0.241-0.234-0.51-0.428-0.814-0.574c-0.172-0.083-0.351-0.152-0.526-0.229c-0.133-0.06-0.271-0.106-0.413-0.143
			c-0.139-0.036-0.28-0.065-0.426-0.071c-0.082-0.002-0.164-0.014-0.247-0.021c-0.018-0.001-0.038-0.005-0.056-0.003
			c-0.225,0.011-0.448,0.025-0.668,0.076c-0.124,0.027-0.241,0.067-0.36,0.103c-0.209,0.061-0.405,0.154-0.6,0.247
			c-0.152,0.076-0.299,0.161-0.442,0.254c-0.264,0.173-0.493,0.384-0.704,0.616c-0.157,0.171-0.292,0.361-0.406,0.562
			c-0.102,0.186-0.193,0.375-0.262,0.572c-0.035,0.099-0.085,0.195-0.103,0.3c-0.033,0.184-0.071,0.366-0.067,0.556
			c0.007,0.297,0,0.597,0.002,0.896c0.002,0.16,0.037,0.314,0.077,0.468c0.047,0.174,0.114,0.34,0.186,0.502
			c0.059,0.137,0.129,0.27,0.209,0.395c0.098,0.158,0.204,0.313,0.323,0.455c0.013,0.018,0.026,0.033,0.041,0.051
			c0.108,0.113,0.214,0.227,0.332,0.33c0.095,0.082,0.197,0.154,0.297,0.23c0.108,0.082,0.224,0.15,0.341,0.217
			c0.164,0.09,0.33,0.174,0.508,0.232c0.04,0.012,0.076,0.039,0.115,0.053c0.13,0.043,0.257,0.092,0.389,0.127
			c0.143,0.033,0.285,0.064,0.433,0.076s0.297,0.014,0.447,0.012c0.242-0.008,0.48-0.035,0.713-0.105
			c0.138-0.041,0.273-0.086,0.4-0.152c0.038-0.02,0.081-0.029,0.121-0.045c0.185-0.064,0.358-0.156,0.528-0.254
			c0.122-0.07,0.239-0.145,0.351-0.229c0.092-0.07,0.177-0.15,0.266-0.227c0.115-0.098,0.212-0.215,0.307-0.332
			c0.09-0.109,0.172-0.223,0.246-0.346c0.085-0.143,0.16-0.291,0.232-0.438c0.035-0.074,0.063-0.15,0.092-0.223
			c0.02-0.053,0.052-0.078,0.112-0.074c0.164,0.012,0.327-0.008,0.491-0.008c2.216,0,4.432,0,6.646,0
			c0.069,0,0.138,0.002,0.206,0.01c0.035,0.002,0.046,0.018,0.043,0.049c0,0.016,0.003,0.033-0.001,0.051
			c-0.038,0.115-0.047,0.24-0.077,0.359c-0.029,0.115-0.051,0.234-0.079,0.35c-0.003,0.016-0.003,0.031-0.007,0.045
			c-0.036,0.133-0.057,0.273-0.097,0.406c-0.029,0.092-0.045,0.191-0.075,0.287c-0.026,0.084-0.057,0.168-0.068,0.26
			c-0.002,0.02-0.016,0.039-0.021,0.059c-0.025,0.109-0.068,0.209-0.093,0.318c-0.019,0.078-0.057,0.154-0.081,0.23
			c-0.017,0.055-0.037,0.104-0.054,0.154c-0.058,0.178-0.128,0.346-0.202,0.514c-0.057,0.129-0.11,0.262-0.172,0.389
			c-0.073,0.15-0.142,0.303-0.229,0.445c-0.061,0.1-0.112,0.207-0.169,0.307c-0.058,0.104-0.12,0.203-0.183,0.301
			c-0.086,0.137-0.177,0.27-0.269,0.402c-0.09,0.131-0.186,0.258-0.276,0.385c-0.069,0.1-0.154,0.188-0.228,0.281
			c-0.139,0.178-0.293,0.342-0.442,0.512c-0.064,0.07-0.138,0.135-0.204,0.207c-0.104,0.113-0.215,0.219-0.328,0.322
			c-0.121,0.111-0.24,0.225-0.363,0.332c-0.182,0.156-0.372,0.299-0.558,0.449c-0.138,0.109-0.282,0.213-0.429,0.314
			c-0.151,0.105-0.304,0.207-0.461,0.303c-0.085,0.051-0.167,0.111-0.255,0.156c-0.192,0.094-0.371,0.211-0.565,0.307
			c-0.231,0.113-0.46,0.232-0.703,0.328c-0.095,0.037-0.186,0.078-0.278,0.121c-0.047,0.023-0.098,0.033-0.143,0.063
			c-0.018,0.014-0.041,0.01-0.062,0.01c-0.03,0-0.043-0.016-0.045-0.045c0-0.014,0-0.029,0-0.043c0-0.785,0-1.576,0-2.361
			c0-0.021,0-0.049,0.002-0.07c0.005-0.041,0.021-0.07,0.061-0.092c0.131-0.068,0.262-0.141,0.391-0.213
			c0.086-0.047,0.17-0.102,0.255-0.148c0.103-0.059,0.202-0.123,0.299-0.189c0.213-0.15,0.423-0.303,0.626-0.465
			c0.164-0.129,0.321-0.268,0.473-0.41c0.145-0.135,0.289-0.271,0.426-0.418c0.137-0.141,0.26-0.293,0.386-0.445
			c0.099-0.117,0.189-0.24,0.282-0.365c0.079-0.104,0.159-0.211,0.232-0.32c0.068-0.102,0.132-0.205,0.196-0.311
			c0.098-0.156,0.193-0.314,0.274-0.479c0.023-0.049,0.054-0.094,0.078-0.141c0.029-0.059,0.012-0.088-0.051-0.092
			c-0.028,0-0.057,0-0.085,0c-0.844,0-1.689,0-2.534,0c-0.063,0-0.104,0.016-0.143,0.07c-0.057,0.078-0.125,0.146-0.189,0.221
			c-0.119,0.137-0.234,0.273-0.367,0.395c-0.23,0.213-0.466,0.416-0.724,0.596c-0.156,0.111-0.317,0.213-0.481,0.311
			c-0.089,0.055-0.184,0.098-0.277,0.145c-0.1,0.051-0.196,0.105-0.298,0.145c-0.148,0.057-0.291,0.125-0.441,0.174
			c-0.095,0.029-0.19,0.057-0.283,0.088c-0.103,0.039-0.211,0.057-0.317,0.082c-0.038,0.01-0.076,0.023-0.117,0.025
			c-0.089,0.002-0.111,0.029-0.111,0.117c0,0.688,0,1.373,0,2.057c0,0.869,0,1.738,0,2.607c0,0.021,0,0.043-0.003,0.063
			c-0.011,0.068-0.022,0.08-0.091,0.082c-0.044,0-0.083,0.016-0.124,0.025c-0.086,0.025-0.175,0.023-0.262,0.025
			c-0.174,0.01-0.349,0.023-0.525,0.02c-0.159-0.004-0.319,0.004-0.477-0.004c-0.202-0.004-0.403-0.01-0.604-0.027
			c-0.098-0.006-0.194-0.039-0.293-0.041c-0.034-0.002-0.051-0.025-0.053-0.057c-0.001-0.02-0.001-0.041-0.001-0.057
			c0-1.541,0-3.082,0-4.623c0-0.021-0.001-0.039,0-0.063c0.008-0.082-0.03-0.109-0.105-0.123c-0.175-0.029-0.345-0.078-0.515-0.129
			c-0.127-0.039-0.251-0.082-0.375-0.127c-0.21-0.08-0.411-0.178-0.608-0.283c-0.109-0.063-0.222-0.115-0.326-0.184
			c-0.106-0.072-0.211-0.146-0.315-0.219c-0.117-0.082-0.226-0.174-0.335-0.262c-0.053-0.043-0.101-0.086-0.151-0.129
			c-0.127-0.111-0.249-0.229-0.364-0.352c-0.147-0.16-0.297-0.316-0.426-0.494c-0.04-0.051-0.087-0.074-0.156-0.074
			c-0.887,0-1.77,0-2.656,0c-0.117,0-0.134,0.027-0.08,0.127c0.066,0.117,0.131,0.234,0.199,0.352
			c0.097,0.168,0.194,0.334,0.303,0.494c0.171,0.254,0.349,0.502,0.542,0.736c0.111,0.137,0.229,0.266,0.347,0.396
			c0.117,0.127,0.237,0.252,0.362,0.371c0.112,0.107,0.23,0.211,0.349,0.313c0.112,0.094,0.224,0.189,0.34,0.279
			c0.122,0.092,0.245,0.186,0.368,0.275c0.139,0.1,0.283,0.188,0.425,0.283c0.093,0.064,0.195,0.113,0.294,0.17
			c0.125,0.066,0.249,0.133,0.374,0.199c0.037,0.021,0.05,0.049,0.05,0.088c-0.001,0.1,0,0.199,0,0.299c0,0.707,0,1.414,0,2.121
			c0,0.014,0,0.023,0,0.037c-0.001,0.066-0.034,0.09-0.095,0.057c-0.119-0.059-0.247-0.096-0.367-0.152
			c-0.201-0.092-0.404-0.178-0.603-0.279c-0.134-0.068-0.266-0.141-0.398-0.213c-0.165-0.086-0.327-0.18-0.488-0.275
			c-0.239-0.143-0.468-0.303-0.696-0.463c-0.147-0.102-0.288-0.213-0.426-0.328c-0.14-0.113-0.282-0.223-0.415-0.348
			c-0.141-0.131-0.291-0.256-0.427-0.395c-0.146-0.148-0.296-0.293-0.434-0.449c-0.079-0.092-0.162-0.18-0.239-0.271
			c-0.09-0.105-0.183-0.211-0.27-0.32c-0.18-0.223-0.347-0.459-0.511-0.689c-0.079-0.113-0.145-0.232-0.223-0.346
			c-0.084-0.121-0.152-0.25-0.228-0.375c-0.079-0.129-0.153-0.266-0.225-0.4c-0.07-0.135-0.137-0.27-0.198-0.406
			c-0.095-0.213-0.188-0.424-0.274-0.635c-0.094-0.232-0.175-0.471-0.242-0.711c-0.045-0.16-0.087-0.324-0.125-0.486
			c-0.021-0.094-0.045-0.188-0.067-0.283c-0.034-0.152-0.058-0.305-0.087-0.459c-0.03-0.162-0.046-0.328-0.072-0.49
			c-0.01-0.061-0.012-0.121-0.014-0.184c0-0.027,0.009-0.043,0.039-0.049c0.028-0.004,0.056-0.008,0.085-0.008
			c0.128,0,0.256-0.006,0.384,0c0.099,0.004,0.199,0.012,0.298,0.006c0.054-0.002,0.108-0.006,0.163-0.006
			c0.849,0.016,1.699,0.012,2.548,0.008c0.354-0.002,0.706-0.008,1.061-0.008c0.066,0,0.131,0.006,0.198,0.008
			c0.072,0.004,0.093-0.025,0.08-0.096c-0.023-0.121-0.032-0.244-0.044-0.366c-0.042-0.416-0.026-0.831-0.02-1.244
			c0.002-0.215,0.013-0.431,0.064-0.64c0-0.003,0-0.006,0.002-0.007c0.015-0.096,0.005-0.109-0.091-0.109c-1.552,0-3.104,0-4.655,0
			c-0.111,0-0.111,0-0.11-0.108c0.001-0.08,0.018-0.155,0.026-0.231c0.02-0.17,0.046-0.338,0.079-0.505
			c0.028-0.141,0.05-0.284,0.085-0.422c0.024-0.094,0.045-0.19,0.068-0.284C6.833,9.111,6.86,8.998,6.895,8.887
			C6.924,8.795,6.948,8.702,6.977,8.61c0.03-0.094,0.056-0.19,0.089-0.284C7.104,8.22,7.145,8.115,7.187,8.01
			C7.241,7.872,7.3,7.734,7.361,7.599c0.091-0.202,0.19-0.401,0.295-0.596C7.741,6.843,7.832,6.686,7.92,6.527
			C7.959,6.458,8.008,6.399,8.045,6.33c0.039-0.072,0.09-0.139,0.134-0.209C8.269,5.975,8.377,5.84,8.473,5.697
			c0.076-0.112,0.156-0.22,0.241-0.325c0.11-0.138,0.213-0.278,0.333-0.406C9.123,4.885,9.19,4.795,9.264,4.713
			c0.09-0.101,0.185-0.198,0.278-0.295c0.077-0.08,0.157-0.158,0.236-0.236c0.134-0.134,0.28-0.255,0.42-0.382
			c0.147-0.134,0.303-0.258,0.457-0.383c0.167-0.135,0.341-0.263,0.518-0.386c0.222-0.153,0.449-0.297,0.679-0.438
			c0.108-0.065,0.221-0.126,0.333-0.186c0.102-0.054,0.205-0.108,0.306-0.166c0.056-0.031,0.114-0.054,0.173-0.08
			c0.044-0.018,0.082-0.045,0.125-0.065c0.148-0.068,0.297-0.132,0.445-0.197c0.104-0.046,0.207-0.092,0.313-0.131
			c0.006-0.003,0.013-0.007,0.019-0.009c0.088-0.034,0.104-0.023,0.104,0.07c0,0.783,0,1.566,0,2.35c0,0.007,0,0.014,0,0.021
			c0.011,0.085-0.018,0.134-0.103,0.175c-0.144,0.07-0.286,0.145-0.42,0.234c-0.117,0.078-0.245,0.143-0.363,0.218
			c-0.138,0.092-0.273,0.188-0.406,0.286c-0.117,0.085-0.23,0.175-0.342,0.265c-0.109,0.087-0.215,0.177-0.321,0.269
			c-0.103,0.09-0.207,0.182-0.304,0.278c-0.126,0.128-0.25,0.257-0.371,0.391c-0.074,0.083-0.148,0.167-0.22,0.251
			c-0.092,0.108-0.181,0.218-0.268,0.333c-0.178,0.232-0.34,0.476-0.499,0.723C9.99,7.723,9.933,7.83,9.874,7.935
			C9.826,8.021,9.782,8.111,9.731,8.196C9.715,8.224,9.705,8.25,9.693,8.279c-0.016,0.04-0.004,0.056,0.04,0.062
			c0.02,0.002,0.038,0,0.057,0c0.883,0,1.766,0,2.649,0.002c0.083,0.001,0.133-0.029,0.183-0.093
			c0.107-0.139,0.222-0.272,0.345-0.396c0.127-0.126,0.252-0.257,0.384-0.379c0.145-0.139,0.299-0.269,0.466-0.384
			c0.088-0.062,0.173-0.131,0.265-0.189c0.086-0.052,0.17-0.11,0.258-0.161c0.091-0.052,0.179-0.107,0.271-0.154
			c0.124-0.063,0.248-0.126,0.38-0.173c0.091-0.031,0.181-0.069,0.271-0.103c0.124-0.048,0.251-0.083,0.379-0.121
			c0.131-0.038,0.265-0.068,0.398-0.097c0.086-0.02,0.094-0.031,0.094-0.121c0-1.449,0-2.896,0-4.343c0-0.121,0-0.241,0.001-0.363
			c0-0.068,0.005-0.076,0.074-0.087c0.134-0.02,0.267-0.036,0.401-0.046C17,1.101,17.391,1.11,17.781,1.11
			c0.105,0.001,0.213,0.005,0.319,0.021c0.002,0,0.004,0.001,0.007,0.001c0.126-0.007,0.249,0.02,0.372,0.045
			c0.061,0.013,0.072,0.025,0.075,0.089c0.024,0.396,0.01,0.792,0.01,1.188c0.003,1.164,0.001,2.33,0.001,3.495
			c0,0.004,0,0.009,0,0.015c0,0.106,0.022,0.131,0.131,0.139c0.066,0.004,0.125,0.024,0.187,0.042
			c0.089,0.025,0.179,0.038,0.266,0.07c0.089,0.031,0.181,0.056,0.27,0.084c0.112,0.037,0.22,0.082,0.331,0.123
			c0.121,0.043,0.235,0.104,0.352,0.162c0.08,0.04,0.159,0.085,0.236,0.128c0.084,0.049,0.167,0.098,0.249,0.148
			c0.239,0.147,0.464,0.317,0.686,0.489c0.038,0.029,0.072,0.063,0.107,0.093C21.544,7.588,21.7,7.741,21.847,7.9
			c0.111,0.122,0.222,0.242,0.321,0.372c0.036,0.047,0.079,0.071,0.145,0.071c0.861-0.002,1.723-0.002,2.583-0.002
			c0.019,0,0.039,0.002,0.058,0c0.043-0.004,0.064-0.035,0.041-0.067c-0.066-0.1-0.108-0.211-0.167-0.312
			c-0.082-0.139-0.161-0.278-0.245-0.416c-0.041-0.067-0.091-0.128-0.13-0.192c-0.049-0.085-0.113-0.159-0.162-0.243
			c-0.032-0.054-0.075-0.097-0.11-0.147c-0.122-0.17-0.258-0.327-0.392-0.485c-0.213-0.256-0.453-0.485-0.691-0.717
			c-0.117-0.113-0.243-0.218-0.37-0.321c-0.144-0.119-0.293-0.229-0.44-0.346c-0.043-0.037-0.092-0.065-0.14-0.096
			c-0.094-0.063-0.185-0.131-0.283-0.189c-0.164-0.097-0.322-0.204-0.491-0.296c-0.096-0.052-0.194-0.104-0.29-0.157
			c-0.042-0.023-0.071-0.051-0.072-0.104C21.01,4.221,21.004,4.19,21.004,4.16c0-0.771,0-1.543-0.001-2.313
			c0-0.106,0.021-0.132,0.131-0.083c0.146,0.063,0.296,0.124,0.441,0.189c0.177,0.078,0.354,0.154,0.526,0.243
			c0.08,0.042,0.161,0.078,0.24,0.12c0.11,0.058,0.218,0.121,0.328,0.178c0.109,0.056,0.215,0.119,0.318,0.185
			c0.145,0.093,0.295,0.178,0.434,0.281c0.125,0.094,0.259,0.175,0.382,0.269c0.175,0.134,0.352,0.263,0.52,0.408
			c0.191,0.163,0.378,0.331,0.561,0.502c0.115,0.106,0.229,0.215,0.335,0.328c0.12,0.128,0.241,0.255,0.355,0.388
			c0.118,0.139,0.239,0.274,0.353,0.417c0.08,0.099,0.155,0.204,0.232,0.305c0.071,0.093,0.145,0.188,0.209,0.284
			c0.096,0.145,0.196,0.287,0.283,0.44c0.053,0.092,0.112,0.179,0.166,0.271c0.126,0.224,0.248,0.451,0.359,0.681
			c0.058,0.117,0.111,0.234,0.164,0.353c0.044,0.103,0.083,0.206,0.125,0.309c0.043,0.109,0.088,0.215,0.126,0.323
			c0.028,0.081,0.053,0.163,0.079,0.242c0.024,0.08,0.043,0.159,0.073,0.236c0.031,0.076,0.05,0.157,0.073,0.237
			c0.033,0.115,0.068,0.23,0.093,0.346c0.02,0.092,0.047,0.179,0.068,0.269c0.044,0.193,0.092,0.386,0.136,0.58
			c0.015,0.062,0.02,0.125,0.036,0.188c0.024,0.098,0.043,0.198,0.066,0.298c0.001,0.006,0.004,0.013,0.006,0.02
			c0.018,0.103,0.003,0.121-0.103,0.121C26.908,10.773,25.697,10.773,24.488,10.773L24.488,10.773z"/>
	</g>
</g>
<text transform="matrix(1 0 0 1 139.375 19.7207)" fill="#B5B5B5" font-family="'Poppins-Light'" font-size="22">API</text>
<text transform="matrix(1 0 0 1 32.2515 19.7207)" fill="#FFFFFF" font-family="'Poppins-SemiBold'" font-size="22">COGNIVO</text>
</svg>
