<?xml version="1.0" encoding="utf-8"?>
<!-- Generator: Adobe Illustrator 16.0.3, SVG Export Plug-In . SVG Version: 6.00 Build 0)  -->
<!DOCTYPE svg PUBLIC "-//W3C//DTD SVG 1.1//EN" "http://www.w3.org/Graphics/SVG/1.1/DTD/svg11.dtd">
<svg version="1.1" id="Capa_1" xmlns="http://www.w3.org/2000/svg" xmlns:xlink="http://www.w3.org/1999/xlink" x="0px" y="0px"
	 width="512px" height="512px" viewBox="0 0 512 512" enable-background="new 0 0 512 512" xml:space="preserve">
<g>
	<path fill-rule="evenodd" clip-rule="evenodd" fill="#EFC048" d="M501.173,233.995c1.256,9.87,0.41,19.778,0.57,29.663
		c0.16,9.811-1.17,19.494-2.486,29.204c-2.281,16.838-6.569,33.146-12.343,49.053c-5.553,15.298-12.642,29.889-21.163,43.808
		c-7.013,11.457-14.971,22.218-23.664,32.372c-6.251,7.3-13.076,14.127-20.238,20.647c-12.08,10.997-24.992,20.825-38.783,29.469
		c-11.746,7.362-24.142,13.495-36.976,18.877c-12.231,5.13-24.913,8.575-37.646,11.898c-5.382,1.403-11.006,2.046-16.548,2.904
		c-15.361,2.378-30.8,2.908-46.253,2.329c-7.489-0.282-14.99-1.252-22.466-2.323c-9.062-1.299-18.01-2.922-26.84-5.272
		c-9.93-2.644-19.74-5.661-29.295-9.469c-7.768-3.096-15.341-6.599-22.758-10.466c-13.109-6.835-25.525-14.729-37.221-23.777
		c-9.644-7.46-18.976-15.295-27.307-24.194c-9.343-9.982-18.035-20.508-25.844-31.787c-7.684-11.1-14.502-22.675-20.205-34.865
		c-6.038-12.907-10.681-26.347-14.582-40.08c-2.683-9.444-4.346-19.068-6.295-28.643c-0.884-4.341-0.694-8.889-1.37-13.285
		c-1.552-10.087-1.442-20.235-1.17-30.363c0.245-9.124,1.225-18.2,2.405-27.281c2.064-15.879,5.811-31.29,11.05-46.373
		c4.748-13.668,10.83-26.713,17.833-39.391c6.038-10.928,12.927-21.266,20.497-31.12c6.493-8.452,13.921-16.131,21.499-23.668
		c14.418-14.341,30.278-26.705,47.856-36.957c13.125-7.655,26.733-14.114,41.033-19.29c12.306-4.454,24.816-7.896,37.67-10.277
		c7.677-1.422,15.374-2.474,23.142-3.273c9.365-0.963,18.724-1.298,28.115-1.192c9.69,0.109,19.284,1.134,28.892,2.453
		c6.273,0.862,12.428,2.146,18.632,3.283c6.346,1.163,12.599,2.709,18.726,4.603c14.084,4.354,27.792,9.72,40.824,16.683
		c13.03,6.962,25.582,14.642,37.226,23.817c10.004,7.884,19.736,16.059,28.42,25.366c12.652,13.559,24.258,27.944,33.577,44.079
		c9.547,16.528,17.668,33.674,23.296,51.948c2.872,9.327,5.114,18.798,6.996,28.383C499.442,218.954,500.287,226.47,501.173,233.995
		z"/>
	<path fill-rule="evenodd" clip-rule="evenodd" fill="#131211" d="M198.925,335.855c-6.553,0.976-12.59,2.193-18.517,3.828
		c-6.341,1.749-12.979,2.495-18.904,5.705c-5.751,3.115-8.959,8.063-9.005,14.341c-0.212,28.412-0.212,56.829,0.064,85.241
		c0.033,3.375-1.076,2.76-2.875,2.143c-4.656-1.599-5.002-2.187-5.002-7.375c0-4.074-0.152-8.157,0.062-12.221
		c0.112-2.117-0.61-2.558-2.479-2.335c-1.269,0.151-2.58,0.132-3.854,0.006c-2.073-0.205-2.845,0.569-2.774,2.694
		c0.133,4.012,0.038,8.032,0.038,12.479c-2.642-1.352-4.794-2.621-7.079-3.567c-1.864-0.772-1.262-2.215-1.264-3.456
		c-0.028-24.232-0.064-48.466,0.044-72.698c0.011-2.513-0.645-3.141-3.087-3.044c-5.031,0.199-10.082,0.201-15.115,0.028
		c-8.194-0.281-16.319,8.173-16.781,15.36c-0.809,12.586-0.078,25.146-0.485,37.708c-0.025,0.784,0.203,1.466,0.702,2.14
		c-0.243,0.147-0.485,0.296-0.728,0.443c-2.507-2.531-5.059-5.021-7.473-7.637c-0.385-0.418-0.197-1.406-0.198-2.132
		c-0.01-9.65,0.373-19.319-0.103-28.945c-0.593-12.031,11.139-23.876,22.616-24.78c8.093-0.638,16.138-0.198,24.2-0.439
		c2.819-0.085,4.743,2.139,4.75,4.952c0.007,2.896,0.073,5.793-0.031,8.685c-0.048,1.352,0.245,1.749,1.707,1.805
		c7.264,0.273,6.867,0.301,7.436-6.757c0.654-8.103,4.485-14.657,11.592-19.06c6.533-4.046,14.007-5.217,21.263-7.011
		c5.484-1.355,11.031-2.476,16.581-3.541c4.603-0.883,9.234-1.655,13.881-2.245c3.468-0.441,6.837-1.583,10.413-1.354
		c1.066,0.069,1.467-0.878,1.457-2.002c-0.044-5.039-0.108-10.082,0.04-15.116c0.043-1.452-0.65-1.292-1.588-1.605
		c-9.445-3.156-18.671-6.884-27.498-11.498c-11.81-6.177-22.432-14.013-31.262-24.039c-3.486-3.959-6.72-8.224-9.11-12.983
		c-0.824-1.64-1.763-2.25-3.596-2.257c-13.081-0.052-22.364-7.687-25.329-20.44c-0.511-2.195-0.799-4.674-0.789-7.09
		c0.07-16.083-0.027-32.168,0.066-48.251c0.042-7.117,2.567-13.262,7.625-18.442c4.271-4.374,9.567-6.89,15.343-7.15
		c3.673-0.166,4.832-2.325,5.764-4.45c3.218-7.339,8.384-13.232,13.918-18.656c7.246-7.102,15.055-13.674,24.368-18.089
		c1.513-0.718,2.231-1.222,1.304-3.235c-0.675-1.467-1.429-3.049-1.814-4.721c-0.421-1.828-1.563-2.529-3.651-2.653
		c-5.315-0.315-9.037-3.376-10.4-8.404c-1.095-4.037-0.599-8.003,2.524-11.566c7.223-8.241,18.331-3.678,20.604,4.771
		c0.912,3.39,0.962,7.097-1.812,9.933c-1.178,1.204-1.406,2.164-0.457,3.504c0.214,0.3,0.133,0.792,0.287,1.155
		c2.7,6.391,2.696,6.371,4.223,5.81c2.513-0.923,5.042-1.801,7.554-2.729c7.848-2.899,15.893-4.984,24.168-6.283
		c6.044-0.949,12.119-1.411,18.188-2.042c9.773-1.016,19.283,0.184,28.899,1.371c8.275,1.021,16.354,2.757,24.272,5.257
		c4.066,1.284,8.046,2.864,11.991,4.492c1.096,0.452,1.644,0.435,2.046-0.62c0.104-0.272-0.17-0.761-0.021-0.932
		c3.414-3.898,2.72-7.722,0.737-12.2c-2.789-6.299,1.643-12.747,7.127-14.947c8.925-3.579,16.896,3.979,16.521,11.575
		c-0.33,6.702-4.561,10.958-10.733,11.758c-2.671,0.346-3.425,1.53-4.388,3.392c-0.378,0.73-0.391,1.508-0.782,2.265
		c-2.048,3.965-1.885,3.906,2.057,6.056c6.093,3.324,11.724,7.299,17.059,11.792c7.465,6.288,14.247,13.24,18.406,22.014
		c2.466,5.203,6.27,6.646,11.056,7.432c11.544,1.895,19,13.821,18.9,24.014c-0.169,17.154,0.012,34.312-0.068,51.467
		c-0.047,10.142-7.799,21.794-19.692,24.15c-1.001,0.199-1.795,1.064-2.941,0.746c-4.361-1.211-6.259,1.799-8.198,4.805
		c-8.721,13.518-20.551,23.659-34.321,31.746c-9.935,5.836-20.384,10.409-31.438,13.645c-1.153,0.337-1.982,0.949-1.899,2.632
		c0.215,4.386,0.332,8.81-0.023,13.178c-0.215,2.643,1.179,3.165,3.021,3.45c7.276,1.126,14.709,1.593,21.817,3.368
		c9.36,2.34,18.939,3.635,28.191,6.578c6.198,1.972,11.826,4.297,16.157,9.278c3.309,3.805,4.875,8.298,5.526,13.186
		c0.113,0.843,0.014,1.714,0.017,2.571c0.005,1.654,0.364,3.406,0.814,4.823c0.515,1.621,2.553-0.667,3.96,0.081
		c0.423,0.226,1.092,0.013,1.487,0.26c1.014,0.631,1.993,0.771,2.861-0.072c0.96-0.933,0.577-2.118,0.34-3.236
		c-0.633-2.976-0.692-5.875,0.073-8.91c0.645-2.554,2.243-3.389,4.403-3.418c7.183-0.099,14.42-0.594,21.54,0.08
		c13.153,1.246,21.33,6.866,25.05,21.111c0.155,0.594-0.047,1.276-0.048,1.917c-0.004,10.509-0.045,21.017,0.044,31.524
		c0.013,1.501-0.427,2.303-1.571,3.263c-2.095,1.757-3.889,3.872-6.196,6.234c0-13.183,0.159-25.659-0.062-38.129
		c-0.125-7.075-3.264-12.721-9.713-16.128c-1.397-0.739-2.996-1.498-4.519-1.533c-6.643-0.147-13.291-0.006-19.937-0.038
		c-1.093-0.005-1.236,0.454-1.165,1.332c0.052,0.639,0.008,1.286,0.008,1.929c0,23.376-0.131,46.752,0.124,70.124
		c0.045,4.074-1.245,6.145-4.8,7.614c-3.45,1.427-3.677,1.431-3.687-2.415c-0.008-3.002-0.133-6.013,0.047-9.004
		c0.109-1.792-0.539-2.028-2.123-2.042c-6.934-0.06-6.933-0.113-6.933,6.875c0,2.359,0,4.718,0,7.077
		c0,5.638-0.005,5.629-4.977,8.015c-1.907,0.915-2.822,1.044-2.812-1.762c0.109-28.736,0.06-57.472,0.072-86.209
		c0.003-7.344-6.204-13.903-12.708-15.639c-7.947-2.12-15.96-3.996-23.903-6.133c-2.551-0.687-5.197-0.686-7.736-1.54
		c-1.622-0.545-1.938,0.887-2.012,2.349c-0.416,8.168-1.924,16.134-4.471,23.916c-3.782,11.556-11.466,18.786-23.432,21.266
		c-6.762,1.401-13.595,2.173-20.494,2.733c-4.76,0.386-9.52,0.725-14.222,0.396c-9.682-0.674-19.424-1.072-28.757-4.377
		c-8.999-3.187-15.088-9.408-18.557-17.969c-2.941-7.259-4.27-15.017-4.577-22.897C199.289,339.438,198.165,337.76,198.925,335.855z
		"/>
	<path fill-rule="evenodd" clip-rule="evenodd" fill="#1B968D" d="M271.125,421.942c-1.031-4.797,0.701-8.714,0.288-12.718
		c-0.163-1.579,0.777-1.494,1.753-1.366c0.866,0.113,2.188-0.692,2.159,1.294c-0.094,6.217-0.043,12.436-0.027,18.653
		c0.002,0.674,0.088,1.214-0.885,1.284c-1.666,0.12-3.271,0.054-4.187-1.56c-1.854-3.271-4.764-5.695-6.871-8.761
		c-0.84-1.223-1.857-2.321-2.794-3.477c-0.236,0.157-0.473,0.314-0.708,0.471c0,3.643-0.082,7.287,0.031,10.926
		c0.064,2.091-0.969,2.316-2.729,2.454c-2.176,0.17-1.809-1.107-1.809-2.349c0.003-5.361,0.015-10.721-0.01-16.082
		c-0.005-1.176-0.23-2.616,1.265-2.813c1.248-0.163,2.725-0.579,3.827,0.809C263.757,412.906,267.157,417.045,271.125,421.942z"/>
	<path fill-rule="evenodd" clip-rule="evenodd" fill="#1C968F" d="M323.285,429.072c-5.148,0.969-10.927-4.814-10.729-10.561
		c0.235-6.857,4.333-11.396,10.934-11.292c7.029,0.113,11.524,4.254,11.615,10.544C335.212,425.257,331.138,429.068,323.285,429.072
		z"/>
	<path fill-rule="evenodd" clip-rule="evenodd" fill="#1D9890" d="M226.396,418.249c0.31,7.982-5.348,11.025-11.445,11.298
		c-5.504,0.247-11.189-4.518-11.098-10.406c0.104-6.772,4.947-12.094,11.34-11.903C220.395,407.393,227.3,411.137,226.396,418.249z"
		/>
	<path fill-rule="evenodd" clip-rule="evenodd" fill="#1D9A92" d="M230.297,418.741c-0.357-4.641,1.285-7.53,4.856-9.75
		c4.241-2.635,8.339-2.088,12.402-0.125c1.544,0.745,3.094,2.236,0.55,4.017c-0.931,0.651-1.034,0.71-2.04-0.237
		c-2.904-2.734-7.292-1.959-10.02,1.31c-2.167,2.596-1.683,7.505,0.831,9.871c1.934,1.818,4.258,1.595,6.458,1.249
		c1.189-0.187,2.958-1.011,2.877-2.437c-0.079-1.389-1.744-1.928-3.098-1.882c-1.644,0.057-1.214-0.973-1.292-1.873
		c-0.094-1.095,0.242-1.61,1.404-1.398c0.311,0.056,0.642,0.009,0.963,0.006c6.078-0.057,5.973-0.056,6.08,6.086
		c0.031,1.769-0.679,2.864-1.885,3.736c-6.414,4.642-15.013,1.72-17.82-4.749C229.948,421.146,230.43,419.656,230.297,418.741z"/>
	<path fill-rule="evenodd" clip-rule="evenodd" fill="#1B9890" d="M182.022,418.701c-0.529-5.005,2.346-8.038,6.011-10.22
		c4.041-2.403,8.172-1.26,11.958,1.034c0.677,0.411,2.246,1.188,0.726,2.393c-0.858,0.681-1.231,2.696-3.181,0.964
		c-2.492-2.212-5.456-2.116-8.254-0.343c-2.282,1.444-3.672,5.178-2.829,8.119c0.885,3.084,3.562,4.513,6.361,5.122
		c1.525,0.332,3.451-0.512,4.685-1.68c1.475-1.396,2.376-0.819,3.378,0.377c1.29,1.539-0.05,2.433-1.002,3.052
		c-3.802,2.469-7.934,3.105-12.021,0.925C184.019,426.398,181.35,423.391,182.022,418.701z"/>
	<path fill-rule="evenodd" clip-rule="evenodd" fill="#1A958B" d="M289.251,408.045c3.807-0.929,4.93,0.705,6.139,3.785
		c1.405,3.581,2.696,7.282,4.706,10.914c2.206-3.173,3.166-6.847,4.827-10.172c1.052-2.105,1.079-5.465,4.976-4.76
		c1.073,0.194,1.819-0.214,0.986,1.538c-2.815,5.906-5.275,11.981-7.932,17.965c-0.521,1.173-1.329,2.337-2.78,2.358
		c-1.448,0.021-2.004-1.141-2.52-2.341C294.904,420.943,292.103,414.576,289.251,408.045z"/>
	<path fill-rule="evenodd" clip-rule="evenodd" fill="#1D9B95" d="M281.085,418.528c0-2.885,0.115-5.775-0.044-8.651
		c-0.093-1.691,0.385-2.282,2.068-2.059c1.253,0.166,2.646-0.505,2.552,1.919c-0.225,5.761-0.195,11.539-0.009,17.303
		c0.069,2.123-0.872,2.005-2.396,2.092c-1.848,0.104-2.313-0.498-2.213-2.272C281.2,424.091,281.085,421.307,281.085,418.528z"/>
	<path fill-rule="evenodd" clip-rule="evenodd" fill="#EFC148" d="M364.083,203.181c0,7.291,0.212,14.589-0.047,21.87
		c-0.458,12.878-4.889,24.441-12.489,34.772c-10.616,14.431-24.912,24.189-40.967,31.534c-10.77,4.927-22.017,8.279-33.729,10.468
		c-9.723,1.815-19.459,2.351-29.147,1.619c-11.974-0.903-23.619-3.813-35.009-7.926c-18.723-6.763-35.291-16.728-48.288-31.87
		c-7.391-8.612-12.925-18.43-14.68-30.016c-0.282-1.862-0.537-3.694-0.517-5.545c0.146-13.536-0.596-27.065-0.533-40.587
		c0.051-10.893,1.434-21.752,6.504-31.718c6.775-13.314,16.951-23.483,29.273-31.706c12.996-8.67,27.47-13.797,42.511-17.239
		c5.346-1.224,10.984-1.65,16.532-2.204c6.165-0.615,12.284-0.439,18.41-0.414c10.915,0.045,21.556,2.099,32.133,4.765
		c12.43,3.133,24.056,8.18,34.618,15.203c14.503,9.642,26.118,22.149,31.998,38.897c2.314,6.594,3.671,13.613,3.464,20.798
		C363.937,190.311,364.083,196.748,364.083,203.181z"/>
	<path fill-rule="evenodd" clip-rule="evenodd" fill="#F1C34C" d="M207.095,339.224c0-4.877,1.649-6.404,5.682-6.021
		c0.719,0.068,0.696,0.506,0.77,1.085c0.604,4.78,1.169,9.569,1.942,14.324c0.789,4.847,1.689,9.778,4.612,13.835
		c3.017,4.188,7.69,5.889,12.589,6.763c10.05,1.792,20.222,2.401,30.387,1.863c6.957-0.369,13.978-0.853,20.787-2.521
		c6.472-1.586,11.854-8.47,12.692-15.362c0.766-6.307,2.253-12.519,2.555-18.891c0.014-0.299,0.134-0.854,0.154-0.853
		c1.881,0.217,3.759,0.46,5.632,0.736c1.425,0.21,1.396,1.271,1.276,2.332c-0.771,6.792-1.446,13.604-3.213,20.231
		c-2.669,10.005-8.514,16.673-19.072,18.985c-12.743,2.79-25.642,3.026-38.499,2.337c-7.895-0.424-15.909-1.182-23.372-4.852
		c-5.098-2.507-8.178-6.47-10.152-11.279C208.805,354.479,207.602,346.525,207.095,339.224z"/>
	<path fill-rule="evenodd" clip-rule="evenodd" fill="#F0C246" d="M145.149,246.924c-8.271-0.134-15.979-8.074-15.935-16.04
		c0.096-17.468,0.055-34.937,0.018-52.405c-0.018-8.333,6.206-13.989,13.312-16.381c0.832-0.28,1.678-0.37,1.16,1.416
		c-2.168,7.473-3.039,15.131-2.928,22.952c0.181,12.857,0.067,25.72,0.042,38.579C140.804,232.595,142.553,239.77,145.149,246.924z"
		/>
	<path fill-rule="evenodd" clip-rule="evenodd" fill="#F2C445" d="M383.385,204.446c0,8.467-0.236,16.942,0.063,25.398
		c0.324,9.15-6.581,14.811-13.303,17.046c-1.172,0.39-2.527,0.844-1.647-1.844c2.854-8.717,3.096-17.792,3.521-26.94
		c0.533-11.507,0.403-22.993,0.291-34.472c-0.063-6.386-0.555-12.912-2.834-19.059c-0.311-0.837-0.541-1.725,0.03-2.343
		c0.689-0.746,1.281,0.353,1.905,0.546c7.139,2.213,12.32,7.96,12.041,15.949C383.152,187.29,383.385,195.873,383.385,204.446z"/>
	<path fill-rule="evenodd" clip-rule="evenodd" fill="#F1C14E" d="M232.359,323.767c16.201,6.049,32.11,5.943,48.035-0.069
		c0.12,8.154,0.153,8.328-9.23,10.118c-11.808,2.253-23.585,2.429-35.057-1.923C231.258,330.053,232.108,331.991,232.359,323.767z"
		/>
	<path fill-rule="evenodd" clip-rule="evenodd" fill="#EFC04E" d="M280.398,342.361c0.09,7.827-1.089,8.845-9.563,10.208
		c-6.446,1.037-12.892,1.465-19.379,1.189c-5.784-0.245-11.408-1.419-16.833-3.562c-1.881-0.742-2.797-1.665-2.475-3.773
		c0.205-1.335,0.039-2.727,0.039-4.247C248.38,348.64,264.387,348.305,280.398,342.361z"/>
	<path fill-rule="evenodd" clip-rule="evenodd" fill="#EFC454" d="M180.695,89.25c0.069-1.713,1.297-2.966,4.014-3.162
		c2.872-0.208,3.895,1.477,4.32,3.716c0.361,1.901-2.064,4.579-3.958,4.717C183.24,94.656,180.759,92.169,180.695,89.25z"/>
	<path fill-rule="evenodd" clip-rule="evenodd" fill="#F1C753" d="M324.167,90.363c-0.01-2.553,1.067-4.125,3.815-4.222
		c2.615-0.093,3.791,1.108,3.981,3.766c0.211,2.956-1.854,3.951-3.883,4.516C326.052,94.99,324.201,92.789,324.167,90.363z"/>
	<path fill-rule="evenodd" clip-rule="evenodd" fill="#EFC04C" d="M330.626,418.478c0.656,4.517-3.432,6.6-6.617,6.723
		c-4.18,0.161-6.945-2.944-6.904-6.771c0.048-4.325,2.502-6.735,6.954-6.728C328.346,411.708,330.629,414.063,330.626,418.478z"/>
	<path fill-rule="evenodd" clip-rule="evenodd" fill="#EFC24E" d="M214.992,425.212c-4.125-0.007-6.591-2.499-6.61-6.682
		c-0.018-3.972,3.31-7.606,6.847-7.479c3.477,0.124,7.287,3.979,7.308,7.391C222.559,422.163,219.152,425.219,214.992,425.212z"/>
	<path fill-rule="evenodd" clip-rule="evenodd" fill="#131211" d="M232.187,202.731c-0.39,18.511-14.047,30.753-30.597,31.259
		c-18.862,0.577-32.366-14.056-32.265-31.686c0.095-16.736,13.002-31.453,32.216-31.112
		C218.718,171.497,232.04,184.617,232.187,202.731z"/>
	<path fill-rule="evenodd" clip-rule="evenodd" fill="#131211" d="M343.494,203.004c-0.159,18.17-14.436,31.079-31.494,30.941
		c-18.056-0.146-31.223-13.676-31.409-31.254c-0.19-17.782,13.924-31.424,31.533-31.557
		C329.396,171.005,343.744,185.947,343.494,203.004z"/>
	<path fill-rule="evenodd" clip-rule="evenodd" fill="#F2EFE0" d="M159.492,175.001c0.228-2.701,1.475-5.917,2.881-8.993
		c4.597-10.053,10.185-19.616,18.286-27.182c8.09-7.555,16.64-14.741,27.576-18.133c2.959-0.918,4.968-0.078,6.181,2.724
		c1.043,2.409,0.087,5.241-2.404,6.321c-6.679,2.898-13.042,6.202-18.718,10.917c-6.558,5.448-11.954,11.755-16.474,18.939
		c-3.324,5.282-5.509,11.041-7.686,16.821c-0.913,2.424-3.939,4.742-5.814,4.352C161.293,180.346,159.461,177.958,159.492,175.001z"
		/>
	<path fill-rule="evenodd" clip-rule="evenodd" fill="#11100F" d="M240.551,160.188c-0.151-9.983,7.221-15.973,15.681-15.952
		c8.386,0.02,16.2,6.074,16.445,16.167c0.205,8.426-7.298,16.42-16.014,16.421C248.327,176.824,239.773,169.673,240.551,160.188z"/>
	<path fill-rule="evenodd" clip-rule="evenodd" fill="#141210" d="M256.311,268.226c-7.718-0.002-15.436-0.002-23.154-0.002
		c-2.715,0-5.302-1.862-5.494-3.957c-0.194-2.121,2.347-4.406,5.372-4.355c6.346,0.105,12.676-0.116,19.048,0.445
		c7.233,0.638,14.566,0.146,21.855,0.146c2.358,0,4.717-0.002,7.075-0.001c2.552,0.001,3.894,1.317,3.914,3.831
		c0.021,2.516-1.285,3.886-3.854,3.889C272.818,268.232,264.564,268.226,256.311,268.226z"/>
	<path fill-rule="evenodd" clip-rule="evenodd" fill="#2FAAA7" d="M191.653,188.443c9.824-7.216,23.699-0.737,25.825,9.949
		c1.251,6.283-0.053,11.398-4.593,15.787c0-4.43,0-4.43-3.923-5.962c2.324-3.227,2.013-6.926,0.33-9.906
		c-1.653-2.928-4.47-5.347-8.546-4.737c-1.045,0.156-2.127-0.066-3.187,0.094c-0.149-0.488-0.39-1.013-0.452-1.45
		C196.638,188.929,194.671,187.964,191.653,188.443z"/>
	<path fill-rule="evenodd" clip-rule="evenodd" fill="#29A6A4" d="M210.312,216.752c-5.839,3.902-12.001,4.163-18.019,0.83
		c-5.483-3.039-8.588-7.829-8.37-14.389c0.104-3.113-0.489-6.357,1.94-8.959c-0.001,5.159,0.723,5.887,5.684,5.72
		c0.181,0.623,0.101,1.263,0.104,1.896c0.041,8.249,5.842,12.13,13.593,9.088c0.399-0.156-0.104,0.04,0.292-0.123
		C205.84,213.829,206.963,216.186,210.312,216.752z"/>
	<path fill-rule="evenodd" clip-rule="evenodd" fill="#EEEFEC" d="M191.653,200.024c-4.393,0.62-6.411-1.398-5.791-5.791
		c1.226-2.635,2.468-5.253,5.791-5.791c4.292-0.941,5.198,1.926,5.791,5.147C195.084,195.348,193.455,197.764,191.653,200.024z"/>
	<path fill-rule="evenodd" clip-rule="evenodd" fill="#E5EBE9" d="M210.312,216.752c-3.019-0.75-4.833-2.437-4.504-5.791
		c1.394-0.456,1.824-2.117,3.217-2.574c3.563,0.413,4.214,2.767,3.86,5.791C212.616,215.625,210.958,215.683,210.312,216.752z"/>
	<path fill-rule="evenodd" clip-rule="evenodd" fill="#2CA8A8" d="M329.339,202.694c-0.213,9.914-7.604,17.12-17.24,17.13
		c-10.085,0.011-17.269-7.276-17.33-17.227c-0.05-8.247,6.049-16.428,15.022-16.647
		C322.384,185.644,329.339,191.864,329.339,202.694z"/>
	<path fill-rule="evenodd" clip-rule="evenodd" fill="#2DA9A8" d="M256.348,168.498c-4.377,0.483-8.049-3.3-8.194-7.898
		c-0.133-4.183,3.973-8.224,8.225-8.377c5.261-0.191,8.574,4.609,8.559,8.252C264.923,164.055,261.693,169.476,256.348,168.498z"/>
	<path fill-rule="evenodd" clip-rule="evenodd" fill="#131211" d="M209.025,208.388c-1.073,0.858-2.145,1.716-3.217,2.574
		c-4.576,1.548-8.818,1.801-12.401-2.362c-2.261-2.626-1.616-5.631-1.753-8.576c1.799-2.263,3.438-4.67,5.791-6.434
		c3.343,0.19,6.856-0.758,9.671,2.213C210.68,199.563,211.442,203.787,209.025,208.388z"/>
	<path fill-rule="evenodd" clip-rule="evenodd" fill="#121210" d="M311.868,211.605c-5.528,0.001-8.584-3.325-9.004-8.684
		c-0.391-4.998,4.112-9.573,9.335-9.485c5.739,0.096,9.354,5.043,9.419,9.351C321.684,207.022,318.757,212.306,311.868,211.605z"/>
</g>
</svg>
